G04 #@! TF.FileFunction,Legend,Top*
%FSLAX46Y46*%
G04 Gerber Fmt 4.6, Leading zero omitted, Abs format (unit mm)*
G04 Created by KiCad (PCBNEW 4.0.7) date Fri Feb  2 23:20:03 2018*
%MOMM*%
%LPD*%
G01*
G04 APERTURE LIST*
%ADD10C,0.100000*%
%ADD11C,0.120000*%
%ADD12C,0.203200*%
%ADD13C,0.150000*%
%ADD14C,0.121920*%
G04 APERTURE END LIST*
D10*
D11*
X149712800Y-115214400D02*
G75*
G03X149712800Y-115214400I-6100000J0D01*
G01*
D12*
X159665600Y-66582400D02*
X148465600Y-66582400D01*
X148465600Y-66582400D02*
X148465600Y-60082400D01*
X148465600Y-60082400D02*
X148465600Y-59082400D01*
X148465600Y-59082400D02*
X159665600Y-59082400D01*
X159665600Y-59082400D02*
X159665600Y-60082400D01*
X159665600Y-60082400D02*
X159665600Y-66582400D01*
X148465600Y-60082400D02*
X159665600Y-60082400D01*
X140107600Y-66557000D02*
X128907600Y-66557000D01*
X128907600Y-66557000D02*
X128907600Y-60057000D01*
X128907600Y-60057000D02*
X128907600Y-59057000D01*
X128907600Y-59057000D02*
X140107600Y-59057000D01*
X140107600Y-59057000D02*
X140107600Y-60057000D01*
X140107600Y-60057000D02*
X140107600Y-66557000D01*
X128907600Y-60057000D02*
X140107600Y-60057000D01*
X123605400Y-76910000D02*
X123605400Y-88110000D01*
X123605400Y-88110000D02*
X117105400Y-88110000D01*
X117105400Y-88110000D02*
X116105400Y-88110000D01*
X116105400Y-88110000D02*
X116105400Y-76910000D01*
X116105400Y-76910000D02*
X117105400Y-76910000D01*
X117105400Y-76910000D02*
X123605400Y-76910000D01*
X117105400Y-88110000D02*
X117105400Y-76910000D01*
X123656200Y-105688200D02*
X123656200Y-116888200D01*
X123656200Y-116888200D02*
X117156200Y-116888200D01*
X117156200Y-116888200D02*
X116156200Y-116888200D01*
X116156200Y-116888200D02*
X116156200Y-105688200D01*
X116156200Y-105688200D02*
X117156200Y-105688200D01*
X117156200Y-105688200D02*
X123656200Y-105688200D01*
X117156200Y-116888200D02*
X117156200Y-105688200D01*
X123605400Y-91235600D02*
X123605400Y-102435600D01*
X123605400Y-102435600D02*
X117105400Y-102435600D01*
X117105400Y-102435600D02*
X116105400Y-102435600D01*
X116105400Y-102435600D02*
X116105400Y-91235600D01*
X116105400Y-91235600D02*
X117105400Y-91235600D01*
X117105400Y-91235600D02*
X123605400Y-91235600D01*
X117105400Y-102435600D02*
X117105400Y-91235600D01*
D11*
X161071000Y-77428200D02*
X162271000Y-77428200D01*
X162271000Y-79188200D02*
X161071000Y-79188200D01*
X143951400Y-81162000D02*
X145151400Y-81162000D01*
X145151400Y-82922000D02*
X143951400Y-82922000D01*
X139201600Y-86521400D02*
X140401600Y-86521400D01*
X140401600Y-88281400D02*
X139201600Y-88281400D01*
X139709600Y-99094400D02*
X140909600Y-99094400D01*
X140909600Y-100854400D02*
X139709600Y-100854400D01*
X153171600Y-104174400D02*
X154371600Y-104174400D01*
X154371600Y-105934400D02*
X153171600Y-105934400D01*
X139201600Y-92541200D02*
X140401600Y-92541200D01*
X140401600Y-94301200D02*
X139201600Y-94301200D01*
X151518000Y-73212200D02*
X151518000Y-74982200D01*
X151518000Y-74982200D02*
X156838000Y-74982200D01*
X156838000Y-74982200D02*
X156838000Y-69442200D01*
X156838000Y-69442200D02*
X151518000Y-69442200D01*
X151518000Y-69442200D02*
X151518000Y-71212200D01*
X151518000Y-71212200D02*
G75*
G02X151518000Y-73212200I0J-1000000D01*
G01*
X131604400Y-73390000D02*
X131604400Y-75160000D01*
X131604400Y-75160000D02*
X136924400Y-75160000D01*
X136924400Y-75160000D02*
X136924400Y-69620000D01*
X136924400Y-69620000D02*
X131604400Y-69620000D01*
X131604400Y-69620000D02*
X131604400Y-71390000D01*
X131604400Y-71390000D02*
G75*
G02X131604400Y-73390000I0J-1000000D01*
G01*
D13*
X142731848Y-122142971D02*
X142874705Y-122190590D01*
X142922324Y-122238210D01*
X142969943Y-122333448D01*
X142969943Y-122476305D01*
X142922324Y-122571543D01*
X142874705Y-122619162D01*
X142779467Y-122666781D01*
X142398514Y-122666781D01*
X142398514Y-121666781D01*
X142731848Y-121666781D01*
X142827086Y-121714400D01*
X142874705Y-121762019D01*
X142922324Y-121857257D01*
X142922324Y-121952495D01*
X142874705Y-122047733D01*
X142827086Y-122095352D01*
X142731848Y-122142971D01*
X142398514Y-122142971D01*
X143303276Y-121666781D02*
X143969943Y-121666781D01*
X143303276Y-122666781D01*
X143969943Y-122666781D01*
X144874705Y-122666781D02*
X144303276Y-122666781D01*
X144588990Y-122666781D02*
X144588990Y-121666781D01*
X144493752Y-121809638D01*
X144398514Y-121904876D01*
X144303276Y-121952495D01*
X146481848Y-117085829D02*
X147243753Y-117085829D01*
X146862801Y-117466781D02*
X146862801Y-116704876D01*
D14*
X158138949Y-64315703D02*
X158138949Y-64729360D01*
X158111371Y-64812091D01*
X158056217Y-64867246D01*
X157973486Y-64894823D01*
X157918331Y-64894823D01*
X158718068Y-64894823D02*
X158387143Y-64894823D01*
X158552605Y-64894823D02*
X158552605Y-64315703D01*
X158497451Y-64398434D01*
X158442297Y-64453589D01*
X158387143Y-64481166D01*
X138580949Y-64290303D02*
X138580949Y-64703960D01*
X138553371Y-64786691D01*
X138498217Y-64841846D01*
X138415486Y-64869423D01*
X138360331Y-64869423D01*
X138829143Y-64345457D02*
X138856720Y-64317880D01*
X138911874Y-64290303D01*
X139049760Y-64290303D01*
X139104914Y-64317880D01*
X139132491Y-64345457D01*
X139160068Y-64400611D01*
X139160068Y-64455766D01*
X139132491Y-64538497D01*
X138801565Y-64869423D01*
X139160068Y-64869423D01*
X121338703Y-78436651D02*
X121752360Y-78436651D01*
X121835091Y-78464229D01*
X121890246Y-78519383D01*
X121917823Y-78602114D01*
X121917823Y-78657269D01*
X121586897Y-78078149D02*
X121559320Y-78133303D01*
X121531743Y-78160880D01*
X121476589Y-78188457D01*
X121449011Y-78188457D01*
X121393857Y-78160880D01*
X121366280Y-78133303D01*
X121338703Y-78078149D01*
X121338703Y-77967840D01*
X121366280Y-77912686D01*
X121393857Y-77885109D01*
X121449011Y-77857532D01*
X121476589Y-77857532D01*
X121531743Y-77885109D01*
X121559320Y-77912686D01*
X121586897Y-77967840D01*
X121586897Y-78078149D01*
X121614474Y-78133303D01*
X121642051Y-78160880D01*
X121697206Y-78188457D01*
X121807514Y-78188457D01*
X121862669Y-78160880D01*
X121890246Y-78133303D01*
X121917823Y-78078149D01*
X121917823Y-77967840D01*
X121890246Y-77912686D01*
X121862669Y-77885109D01*
X121807514Y-77857532D01*
X121697206Y-77857532D01*
X121642051Y-77885109D01*
X121614474Y-77912686D01*
X121586897Y-77967840D01*
X121389503Y-107214851D02*
X121803160Y-107214851D01*
X121885891Y-107242429D01*
X121941046Y-107297583D01*
X121968623Y-107380314D01*
X121968623Y-107435469D01*
X121968623Y-106635732D02*
X121968623Y-106966657D01*
X121968623Y-106801195D02*
X121389503Y-106801195D01*
X121472234Y-106856349D01*
X121527389Y-106911503D01*
X121554966Y-106966657D01*
X121389503Y-106277229D02*
X121389503Y-106222074D01*
X121417080Y-106166920D01*
X121444657Y-106139343D01*
X121499811Y-106111766D01*
X121610120Y-106084189D01*
X121748006Y-106084189D01*
X121858314Y-106111766D01*
X121913469Y-106139343D01*
X121941046Y-106166920D01*
X121968623Y-106222074D01*
X121968623Y-106277229D01*
X121941046Y-106332383D01*
X121913469Y-106359960D01*
X121858314Y-106387537D01*
X121748006Y-106415114D01*
X121610120Y-106415114D01*
X121499811Y-106387537D01*
X121444657Y-106359960D01*
X121417080Y-106332383D01*
X121389503Y-106277229D01*
X121338703Y-92762251D02*
X121752360Y-92762251D01*
X121835091Y-92789829D01*
X121890246Y-92844983D01*
X121917823Y-92927714D01*
X121917823Y-92982869D01*
X121917823Y-92183132D02*
X121917823Y-92514057D01*
X121917823Y-92348595D02*
X121338703Y-92348595D01*
X121421434Y-92403749D01*
X121476589Y-92458903D01*
X121504166Y-92514057D01*
X121917823Y-91631589D02*
X121917823Y-91962514D01*
X121917823Y-91797052D02*
X121338703Y-91797052D01*
X121421434Y-91852206D01*
X121476589Y-91907360D01*
X121504166Y-91962514D01*
D13*
X161504334Y-80460581D02*
X161171000Y-79984390D01*
X160932905Y-80460581D02*
X160932905Y-79460581D01*
X161313858Y-79460581D01*
X161409096Y-79508200D01*
X161456715Y-79555819D01*
X161504334Y-79651057D01*
X161504334Y-79793914D01*
X161456715Y-79889152D01*
X161409096Y-79936771D01*
X161313858Y-79984390D01*
X160932905Y-79984390D01*
X162456715Y-80460581D02*
X161885286Y-80460581D01*
X162171000Y-80460581D02*
X162171000Y-79460581D01*
X162075762Y-79603438D01*
X161980524Y-79698676D01*
X161885286Y-79746295D01*
X144384734Y-84194381D02*
X144051400Y-83718190D01*
X143813305Y-84194381D02*
X143813305Y-83194381D01*
X144194258Y-83194381D01*
X144289496Y-83242000D01*
X144337115Y-83289619D01*
X144384734Y-83384857D01*
X144384734Y-83527714D01*
X144337115Y-83622952D01*
X144289496Y-83670571D01*
X144194258Y-83718190D01*
X143813305Y-83718190D01*
X144765686Y-83289619D02*
X144813305Y-83242000D01*
X144908543Y-83194381D01*
X145146639Y-83194381D01*
X145241877Y-83242000D01*
X145289496Y-83289619D01*
X145337115Y-83384857D01*
X145337115Y-83480095D01*
X145289496Y-83622952D01*
X144718067Y-84194381D01*
X145337115Y-84194381D01*
X139634934Y-89553781D02*
X139301600Y-89077590D01*
X139063505Y-89553781D02*
X139063505Y-88553781D01*
X139444458Y-88553781D01*
X139539696Y-88601400D01*
X139587315Y-88649019D01*
X139634934Y-88744257D01*
X139634934Y-88887114D01*
X139587315Y-88982352D01*
X139539696Y-89029971D01*
X139444458Y-89077590D01*
X139063505Y-89077590D01*
X139968267Y-88553781D02*
X140587315Y-88553781D01*
X140253981Y-88934733D01*
X140396839Y-88934733D01*
X140492077Y-88982352D01*
X140539696Y-89029971D01*
X140587315Y-89125210D01*
X140587315Y-89363305D01*
X140539696Y-89458543D01*
X140492077Y-89506162D01*
X140396839Y-89553781D01*
X140111124Y-89553781D01*
X140015886Y-89506162D01*
X139968267Y-89458543D01*
X140142934Y-102126781D02*
X139809600Y-101650590D01*
X139571505Y-102126781D02*
X139571505Y-101126781D01*
X139952458Y-101126781D01*
X140047696Y-101174400D01*
X140095315Y-101222019D01*
X140142934Y-101317257D01*
X140142934Y-101460114D01*
X140095315Y-101555352D01*
X140047696Y-101602971D01*
X139952458Y-101650590D01*
X139571505Y-101650590D01*
X141000077Y-101460114D02*
X141000077Y-102126781D01*
X140761981Y-101079162D02*
X140523886Y-101793448D01*
X141142934Y-101793448D01*
X153604934Y-107206781D02*
X153271600Y-106730590D01*
X153033505Y-107206781D02*
X153033505Y-106206781D01*
X153414458Y-106206781D01*
X153509696Y-106254400D01*
X153557315Y-106302019D01*
X153604934Y-106397257D01*
X153604934Y-106540114D01*
X153557315Y-106635352D01*
X153509696Y-106682971D01*
X153414458Y-106730590D01*
X153033505Y-106730590D01*
X154509696Y-106206781D02*
X154033505Y-106206781D01*
X153985886Y-106682971D01*
X154033505Y-106635352D01*
X154128743Y-106587733D01*
X154366839Y-106587733D01*
X154462077Y-106635352D01*
X154509696Y-106682971D01*
X154557315Y-106778210D01*
X154557315Y-107016305D01*
X154509696Y-107111543D01*
X154462077Y-107159162D01*
X154366839Y-107206781D01*
X154128743Y-107206781D01*
X154033505Y-107159162D01*
X153985886Y-107111543D01*
X139634934Y-95573581D02*
X139301600Y-95097390D01*
X139063505Y-95573581D02*
X139063505Y-94573581D01*
X139444458Y-94573581D01*
X139539696Y-94621200D01*
X139587315Y-94668819D01*
X139634934Y-94764057D01*
X139634934Y-94906914D01*
X139587315Y-95002152D01*
X139539696Y-95049771D01*
X139444458Y-95097390D01*
X139063505Y-95097390D01*
X140492077Y-94573581D02*
X140301600Y-94573581D01*
X140206362Y-94621200D01*
X140158743Y-94668819D01*
X140063505Y-94811676D01*
X140015886Y-95002152D01*
X140015886Y-95383105D01*
X140063505Y-95478343D01*
X140111124Y-95525962D01*
X140206362Y-95573581D01*
X140396839Y-95573581D01*
X140492077Y-95525962D01*
X140539696Y-95478343D01*
X140587315Y-95383105D01*
X140587315Y-95145010D01*
X140539696Y-95049771D01*
X140492077Y-95002152D01*
X140396839Y-94954533D01*
X140206362Y-94954533D01*
X140111124Y-95002152D01*
X140063505Y-95049771D01*
X140015886Y-95145010D01*
X149970381Y-72974105D02*
X150779905Y-72974105D01*
X150875143Y-72926486D01*
X150922762Y-72878867D01*
X150970381Y-72783629D01*
X150970381Y-72593152D01*
X150922762Y-72497914D01*
X150875143Y-72450295D01*
X150779905Y-72402676D01*
X149970381Y-72402676D01*
X150970381Y-71402676D02*
X150970381Y-71974105D01*
X150970381Y-71688391D02*
X149970381Y-71688391D01*
X150113238Y-71783629D01*
X150208476Y-71878867D01*
X150256095Y-71974105D01*
X130056781Y-73151905D02*
X130866305Y-73151905D01*
X130961543Y-73104286D01*
X131009162Y-73056667D01*
X131056781Y-72961429D01*
X131056781Y-72770952D01*
X131009162Y-72675714D01*
X130961543Y-72628095D01*
X130866305Y-72580476D01*
X130056781Y-72580476D01*
X130152019Y-72151905D02*
X130104400Y-72104286D01*
X130056781Y-72009048D01*
X130056781Y-71770952D01*
X130104400Y-71675714D01*
X130152019Y-71628095D01*
X130247257Y-71580476D01*
X130342495Y-71580476D01*
X130485352Y-71628095D01*
X131056781Y-72199524D01*
X131056781Y-71580476D01*
M02*
