M48
;DRILL file {KiCad 4.0.7} date Fri Feb  2 23:20:11 2018
;FORMAT={3:3/ absolute / metric / suppress leading zeros}
FMAT,2
METRIC,TZ
T1C0.400
T2C0.800
T3C1.000
T4C1.300
T5C2.700
%
G90
G05
M71
T1
X149860Y-96444
X153289Y-89789
T2
X132994Y-68580
X132994Y-76200
X135534Y-68580
X135534Y-76200
X152908Y-68402
X152908Y-76022
X155448Y-68402
X155448Y-76022
T3
X140363Y-115214
X146863Y-115214
X167513Y-69469
X167513Y-72009
X167513Y-74549
X167513Y-77089
X167513Y-79629
X167513Y-82169
X167513Y-84709
X167513Y-87249
X167513Y-89789
X167513Y-92329
X167513Y-94869
X167513Y-97409
X167513Y-99949
X167513Y-102489
X167513Y-105029
X167513Y-107569
X167513Y-110109
X167513Y-112649
X167513Y-115189
X167513Y-117729
X170053Y-69469
X170053Y-72009
X170053Y-74549
X170053Y-77089
X170053Y-79629
X170053Y-82169
X170053Y-84709
X170053Y-87249
X170053Y-89789
X170053Y-92329
X170053Y-94869
X170053Y-97409
X170053Y-99949
X170053Y-102489
X170053Y-105029
X170053Y-107569
X170053Y-110109
X170053Y-112649
X170053Y-115189
X170053Y-117729
T4
X119405Y-80010
X119405Y-85010
X119405Y-94336
X119405Y-99336
X119456Y-108788
X119456Y-113788
X132008Y-62357
X137008Y-62357
X151566Y-62382
X156566Y-62382
T5
X119761Y-64516
X119761Y-122555
X168783Y-64516
X168783Y-122555
T0
M30
